<?xml version="1.0" encoding="UTF-8"?>
<!--Generator: Apple Native CoreSVG 175.5-->
<!DOCTYPE svg
PUBLIC "-//W3C//DTD SVG 1.1//EN"
       "http://www.w3.org/Graphics/SVG/1.1/DTD/svg11.dtd">
<svg version="1.1" xmlns="http://www.w3.org/2000/svg" xmlns:xlink="http://www.w3.org/1999/xlink" width="9.18442" height="16.2665">
 <g>
  <rect height="16.2665" opacity="0" width="9.18442" x="0" y="0"/>
  <path d="M9.18442 8.12836Q9.18442 7.97913 9.12636 7.85583Q9.0683 7.73254 8.96179 7.62604L1.16089 0.190277Q0.960693 0 0.670776 0Q0.490112 0 0.335007 0.0868988Q0.179901 0.173798 0.0899506 0.325546Q0 0.477295 0 0.670624Q0 0.944214 0.187378 1.14502L7.52975 8.12836L0.187378 15.1117Q0 15.3125 0 15.5861Q0 15.7794 0.0899506 15.9296Q0.179901 16.0799 0.335007 16.1683Q0.490112 16.2567 0.670776 16.2567Q0.960693 16.2567 1.16089 16.0567L8.96179 8.63068Q9.0683 8.52417 9.12636 8.39935Q9.18442 8.27454 9.18442 8.12836Z" fill="#000000"/>
 </g>
</svg>
