<?xml version="1.0" encoding="UTF-8"?>
<!-- Generator: Adobe Illustrator 23.0.3, SVG Export Plug-In . SVG Version: 6.00 Build 0)  -->
<svg version="1.1" id="Layer_1" xmlns="http://www.w3.org/2000/svg" xmlns:xlink="http://www.w3.org/1999/xlink" x="0px" y="0px" viewBox="0 0 307.26 531.03" style="enable-background:new 0 0 307.26 531.03;" xml:space="preserve">
<style type="text/css">
	.st0{fill:#EBEBEC;}
	.st1{display:none;opacity:0.47;fill:#8F8F8F;}
</style>
<g>
	<g>
		<path class="st0" d="M119.6,39.68H21.37c1,3.5,2.12,6.95,3.37,10.33c0.72,1.96,2.55,3.26,4.6,3.26h76.88L119.6,39.68z"/>
		<path class="st0" d="M147.93,10.89H16.16c0.25,3.15,0.6,6.26,1.05,9.35c0.35,2.44,2.42,4.24,4.85,4.24h112.5L147.93,10.89z"/>
		<path class="st0" d="M90.99,68.75H33.15c2.1,3.92,4.38,7.73,6.81,11.42c0.9,1.37,2.43,2.17,4.05,2.17h33.61L90.99,68.75z"/>
		<path class="st0" d="M159.35,56.83L89.9,127.41c3.14,1.76,6.33,3.39,9.57,4.89c1.87,0.87,4.07,0.47,5.52-1l54.36-55.24V56.83z"/>
		<path class="st0" d="M159.35,16.12l-93.17,94.67c2.37,2.04,4.78,4,7.24,5.86c1.95,1.47,4.66,1.26,6.38-0.48l79.55-80.83V16.12z"/>
		<path class="st0" d="M159.35,97.94l-40.9,41.56c4.21,1.26,8.47,2.32,12.77,3.18c1.59,0.32,3.23-0.21,4.37-1.37l23.77-24.15V97.94z    "/>
		<path class="st0" d="M199.4,40.4v99.81c3.44-1.02,6.83-2.16,10.17-3.42c1.92-0.73,3.21-2.59,3.21-4.68V53.99L199.4,40.4z"/>
		<path class="st0" d="M171.06,11.61v133.89c3.09-0.26,6.16-0.61,9.2-1.06c2.4-0.36,4.18-2.46,4.18-4.92V25.2L171.06,11.61z"/>
		<path class="st0" d="M228.01,69.46v58.77c3.86-2.14,7.61-4.45,11.24-6.92c1.34-0.92,2.14-2.47,2.14-4.11V83.05L228.01,69.46z"/>
		<path class="st0" d="M216.28,0l69.45,70.57c1.73-3.19,3.33-6.44,4.81-9.72c0.85-1.9,0.47-4.14-0.98-5.61L235.19,0H216.28z"/>
		<path class="st0" d="M176.21,0l93.17,94.67c2.01-2.41,3.93-4.86,5.77-7.36c1.45-1.98,1.24-4.74-0.47-6.48L195.12,0H176.21z"/>
		<path class="st0" d="M256.74,0l40.9,41.56c1.24-4.28,2.28-8.61,3.13-12.97c0.31-1.61-0.21-3.28-1.35-4.44L275.65,0H256.74z"/>
	</g>
	<g>
		<path class="st0" d="M120.3,490.63v-99.8c-3.44,1.02-6.84,2.16-10.17,3.42c-1.92,0.73-3.21,2.59-3.21,4.68v78.12L120.3,490.63z"/>
		<path class="st0" d="M148.63,519.42V385.53c-3.1,0.26-6.16,0.61-9.2,1.06c-2.4,0.36-4.18,2.46-4.18,4.92v114.31L148.63,519.42z"/>
		<path class="st0" d="M91.69,461.56v-58.77c-3.86,2.14-7.61,4.45-11.24,6.92c-1.34,0.92-2.13,2.47-2.13,4.11v34.15L91.69,461.56z"/>
		<path class="st0" d="M103.42,531.03l-69.46-70.57c-1.73,3.19-3.33,6.44-4.81,9.73c-0.85,1.9-0.47,4.13,0.98,5.61l54.36,55.24    H103.42z"/>
		<path class="st0" d="M143.49,531.03l-93.17-94.67c-2.01,2.41-3.93,4.86-5.77,7.36c-1.45,1.98-1.24,4.74,0.47,6.48l79.55,80.83    H143.49z"/>
		<path class="st0" d="M62.96,531.03l-40.9-41.56c-1.24,4.28-2.28,8.61-3.13,12.97c-0.31,1.61,0.2,3.28,1.35,4.44l23.77,24.15H62.96    z"/>
		<path class="st0" d="M200.1,491.35h98.22c-1-3.5-2.12-6.95-3.37-10.33c-0.72-1.96-2.55-3.26-4.6-3.26h-76.88L200.1,491.35z"/>
		<path class="st0" d="M171.77,520.14h131.77c-0.25-3.14-0.6-6.26-1.05-9.35c-0.35-2.44-2.42-4.24-4.85-4.24h-112.5L171.77,520.14z"/>
		<path class="st0" d="M228.71,462.28h57.84c-2.1-3.92-4.38-7.73-6.81-11.42c-0.9-1.37-2.43-2.17-4.04-2.17h-33.61L228.71,462.28z"/>
		<path class="st0" d="M160.35,474.19l69.45-70.57c-3.14-1.76-6.33-3.38-9.57-4.89c-1.87-0.87-4.07-0.47-5.52,1l-54.36,55.24V474.19    z"/>
		<path class="st0" d="M160.35,514.91l93.17-94.67c-2.37-2.04-4.78-4-7.24-5.86c-1.95-1.47-4.66-1.26-6.38,0.48l-79.55,80.83V514.91    z"/>
		<path class="st0" d="M160.35,433.09l40.9-41.56c-4.21-1.26-8.47-2.32-12.77-3.18c-1.59-0.32-3.23,0.21-4.37,1.37l-23.76,24.15    V433.09z"/>
	</g>
	<g>
		<path class="st0" d="M268.21,226.59v-99.8c-3.44,1.02-6.84,2.16-10.17,3.42c-1.92,0.73-3.21,2.59-3.21,4.68V213L268.21,226.59z"/>
		<path class="st0" d="M296.55,255.38V121.49c-3.1,0.26-6.16,0.61-9.2,1.06c-2.4,0.36-4.18,2.46-4.18,4.92v114.31L296.55,255.38z"/>
		<path class="st0" d="M239.61,197.52v-58.77c-3.86,2.14-7.61,4.45-11.24,6.92c-1.34,0.92-2.13,2.47-2.13,4.11v34.15L239.61,197.52z    "/>
		<path class="st0" d="M251.33,266.99l-69.46-70.57c-1.73,3.19-3.33,6.44-4.81,9.73c-0.85,1.9-0.47,4.13,0.98,5.61l54.36,55.24    H251.33z"/>
		<path class="st0" d="M291.4,266.99l-93.17-94.67c-2.01,2.41-3.93,4.86-5.77,7.36c-1.45,1.98-1.24,4.74,0.47,6.48l79.55,80.83    H291.4z"/>
		<path class="st0" d="M210.88,266.99l-40.9-41.56c-1.24,4.28-2.28,8.61-3.13,12.97c-0.31,1.61,0.2,3.28,1.35,4.44l23.77,24.15    H210.88z"/>
		<path class="st0" d="M267.51,307.68h-98.22c1,3.5,2.12,6.95,3.37,10.33c0.72,1.96,2.55,3.26,4.6,3.26h76.88L267.51,307.68z"/>
		<path class="st0" d="M295.84,278.89H164.08c0.25,3.15,0.6,6.26,1.05,9.35c0.35,2.44,2.42,4.24,4.85,4.24h112.5L295.84,278.89z"/>
		<path class="st0" d="M238.9,336.75h-57.84c2.1,3.92,4.38,7.73,6.81,11.42c0.9,1.37,2.43,2.17,4.05,2.17h33.61L238.9,336.75z"/>
		<path class="st0" d="M307.26,324.83l-69.46,70.57c3.14,1.76,6.33,3.39,9.57,4.89c1.87,0.87,4.07,0.47,5.52-1l54.36-55.24V324.83z"/>
		<path class="st0" d="M307.26,284.12l-93.17,94.67c2.37,2.04,4.78,4,7.24,5.86c1.95,1.47,4.66,1.26,6.38-0.48l79.55-80.83V284.12z"/>
		<path class="st0" d="M307.26,365.94l-40.9,41.56c4.21,1.26,8.47,2.32,12.77,3.18c1.59,0.32,3.23-0.21,4.37-1.37l23.77-24.15    V365.94z"/>
	</g>
	<g>
		<path class="st0" d="M39.31,308.4v99.81c3.44-1.02,6.83-2.16,10.17-3.42c1.92-0.73,3.21-2.59,3.21-4.68v-78.12L39.31,308.4z"/>
		<path class="st0" d="M10.98,279.61v133.89c3.09-0.26,6.16-0.61,9.2-1.06c2.4-0.36,4.18-2.46,4.18-4.92V293.2L10.98,279.61z"/>
		<path class="st0" d="M67.92,337.46v58.77c3.86-2.14,7.61-4.45,11.24-6.92c1.34-0.92,2.14-2.47,2.14-4.11v-34.15L67.92,337.46z"/>
		<path class="st0" d="M56.19,268l69.45,70.57c1.73-3.19,3.33-6.44,4.81-9.72c0.85-1.9,0.47-4.14-0.99-5.61L75.11,268H56.19z"/>
		<path class="st0" d="M16.12,268l93.17,94.67c2.01-2.41,3.93-4.86,5.77-7.36c1.45-1.98,1.24-4.74-0.47-6.48L35.04,268H16.12z"/>
		<path class="st0" d="M96.65,268l40.9,41.56c1.24-4.28,2.28-8.61,3.13-12.97c0.31-1.61-0.21-3.28-1.35-4.44L115.56,268H96.65z"/>
		<path class="st0" d="M40.02,227.31h98.22c-1-3.5-2.12-6.94-3.37-10.33c-0.72-1.96-2.55-3.26-4.6-3.26H53.39L40.02,227.31z"/>
		<path class="st0" d="M11.68,256.1h131.77c-0.25-3.14-0.6-6.26-1.05-9.35c-0.35-2.44-2.42-4.24-4.85-4.24H25.06L11.68,256.1z"/>
		<path class="st0" d="M68.62,198.24h57.84c-2.1-3.92-4.38-7.73-6.81-11.42c-0.9-1.37-2.43-2.17-4.05-2.17H82L68.62,198.24z"/>
		<path class="st0" d="M0.26,210.16l69.45-70.57c-3.14-1.76-6.33-3.38-9.57-4.89c-1.87-0.87-4.07-0.47-5.52,1L0.26,190.94V210.16z"/>
		<path class="st0" d="M0.26,250.87l93.17-94.67c-2.37-2.04-4.78-4-7.24-5.86c-1.95-1.47-4.66-1.26-6.38,0.48L0.26,231.65V250.87z"/>
		<path class="st0" d="M0.26,169.05l40.9-41.56c-4.21-1.26-8.47-2.32-12.77-3.18c-1.59-0.32-3.23,0.21-4.37,1.37L0.26,149.83V169.05    z"/>
	</g>
</g>
<rect x="495.78" y="348.52" class="st1" width="307.23" height="531.18"/>
</svg>