<svg xmlns="http://www.w3.org/2000/svg" xmlns:xlink="http://www.w3.org/1999/xlink" width="500" zoomAndPan="magnify" viewBox="0 0 375 374.999991" height="500" preserveAspectRatio="xMidYMid meet" version="1.0"><defs><g/></defs><g fill="#08f2e0" fill-opacity="1"><g transform="translate(37.078127, 204.749987)"><g><path d="M 30.671875 -11.421875 C 30.222656 -7.617188 28.816406 -4.679688 26.453125 -2.609375 C 24.085938 -0.535156 20.941406 0.5 17.015625 0.5 C 12.765625 0.5 9.351562 -1.023438 6.78125 -4.078125 C 4.21875 -7.128906 2.9375 -11.210938 2.9375 -16.328125 L 2.9375 -19.78125 C 2.9375 -23.132812 3.535156 -26.078125 4.734375 -28.609375 C 5.929688 -31.148438 7.625 -33.101562 9.8125 -34.46875 C 12.007812 -35.832031 14.550781 -36.515625 17.4375 -36.515625 C 21.257812 -36.515625 24.328125 -35.445312 26.640625 -33.3125 C 28.953125 -31.175781 30.296875 -28.21875 30.671875 -24.4375 L 25.890625 -24.4375 C 25.484375 -27.300781 24.585938 -29.375 23.203125 -30.65625 C 21.828125 -31.945312 19.90625 -32.59375 17.4375 -32.59375 C 14.40625 -32.59375 12.023438 -31.472656 10.296875 -29.234375 C 8.578125 -26.992188 7.71875 -23.800781 7.71875 -19.65625 L 7.71875 -16.171875 C 7.71875 -12.265625 8.53125 -9.15625 10.15625 -6.84375 C 11.789062 -4.539062 14.078125 -3.390625 17.015625 -3.390625 C 19.648438 -3.390625 21.671875 -3.984375 23.078125 -5.171875 C 24.492188 -6.367188 25.429688 -8.453125 25.890625 -11.421875 Z M 30.671875 -11.421875 "/></g></g></g><g fill="#08f2e0" fill-opacity="1"><g transform="translate(70.044124, 204.749987)"><g><path d="M 16.40625 -22.65625 C 15.707031 -22.769531 14.953125 -22.828125 14.140625 -22.828125 C 11.140625 -22.828125 9.101562 -21.550781 8.03125 -19 L 8.03125 0 L 3.46875 0 L 3.46875 -26.765625 L 7.921875 -26.765625 L 7.984375 -23.671875 C 9.484375 -26.054688 11.613281 -27.25 14.375 -27.25 C 15.257812 -27.25 15.9375 -27.132812 16.40625 -26.90625 Z M 16.40625 -22.65625 "/></g></g></g><g fill="#08f2e0" fill-opacity="1"><g transform="translate(87.182486, 204.749987)"><g><path d="M 14.5625 0.5 C 10.9375 0.5 7.984375 -0.691406 5.703125 -3.078125 C 3.429688 -5.460938 2.296875 -8.648438 2.296875 -12.640625 L 2.296875 -13.484375 C 2.296875 -16.140625 2.800781 -18.507812 3.8125 -20.59375 C 4.832031 -22.675781 6.253906 -24.304688 8.078125 -25.484375 C 9.898438 -26.660156 11.875 -27.25 14 -27.25 C 17.476562 -27.25 20.179688 -26.101562 22.109375 -23.8125 C 24.035156 -21.519531 25 -18.238281 25 -13.96875 L 25 -12.078125 L 6.875 -12.078125 C 6.9375 -9.429688 7.707031 -7.296875 9.1875 -5.671875 C 10.664062 -4.046875 12.539062 -3.234375 14.8125 -3.234375 C 16.425781 -3.234375 17.796875 -3.5625 18.921875 -4.21875 C 20.046875 -4.882812 21.023438 -5.757812 21.859375 -6.84375 L 24.65625 -4.671875 C 22.414062 -1.222656 19.050781 0.5 14.5625 0.5 Z M 14 -23.5 C 12.15625 -23.5 10.601562 -22.828125 9.34375 -21.484375 C 8.09375 -20.140625 7.320312 -18.253906 7.03125 -15.828125 L 20.4375 -15.828125 L 20.4375 -16.171875 C 20.300781 -18.492188 19.671875 -20.296875 18.546875 -21.578125 C 17.429688 -22.859375 15.914062 -23.5 14 -23.5 Z M 14 -23.5 "/></g></g></g><g fill="#08f2e0" fill-opacity="1"><g transform="translate(114.015275, 204.749987)"><g><path d="M 19.984375 0 C 19.722656 -0.53125 19.507812 -1.46875 19.34375 -2.8125 C 17.21875 -0.601562 14.675781 0.5 11.71875 0.5 C 9.082031 0.5 6.921875 -0.242188 5.234375 -1.734375 C 3.546875 -3.234375 2.703125 -5.128906 2.703125 -7.421875 C 2.703125 -10.203125 3.757812 -12.363281 5.875 -13.90625 C 7.988281 -15.445312 10.96875 -16.21875 14.8125 -16.21875 L 19.265625 -16.21875 L 19.265625 -18.328125 C 19.265625 -19.929688 18.785156 -21.207031 17.828125 -22.15625 C 16.878906 -23.101562 15.472656 -23.578125 13.609375 -23.578125 C 11.972656 -23.578125 10.601562 -23.160156 9.5 -22.328125 C 8.394531 -21.503906 7.84375 -20.507812 7.84375 -19.34375 L 3.234375 -19.34375 C 3.234375 -20.675781 3.707031 -21.960938 4.65625 -23.203125 C 5.601562 -24.453125 6.890625 -25.4375 8.515625 -26.15625 C 10.140625 -26.882812 11.925781 -27.25 13.875 -27.25 C 16.957031 -27.25 19.375 -26.476562 21.125 -24.9375 C 22.875 -23.394531 23.78125 -21.273438 23.84375 -18.578125 L 23.84375 -6.265625 C 23.84375 -3.804688 24.15625 -1.847656 24.78125 -0.390625 L 24.78125 0 Z M 12.390625 -3.484375 C 13.828125 -3.484375 15.1875 -3.851562 16.46875 -4.59375 C 17.757812 -5.34375 18.691406 -6.3125 19.265625 -7.5 L 19.265625 -12.984375 L 15.6875 -12.984375 C 10.070312 -12.984375 7.265625 -11.34375 7.265625 -8.0625 C 7.265625 -6.625 7.742188 -5.5 8.703125 -4.6875 C 9.660156 -3.882812 10.890625 -3.484375 12.390625 -3.484375 Z M 12.390625 -3.484375 "/></g></g></g><g fill="#08f2e0" fill-opacity="1"><g transform="translate(141.565254, 204.749987)"><g><path d="M 9.671875 -33.25 L 9.671875 -26.765625 L 14.671875 -26.765625 L 14.671875 -23.21875 L 9.671875 -23.21875 L 9.671875 -6.625 C 9.671875 -5.550781 9.890625 -4.742188 10.328125 -4.203125 C 10.773438 -3.671875 11.535156 -3.40625 12.609375 -3.40625 C 13.140625 -3.40625 13.867188 -3.503906 14.796875 -3.703125 L 14.796875 0 C 13.585938 0.332031 12.414062 0.5 11.28125 0.5 C 9.238281 0.5 7.695312 -0.117188 6.65625 -1.359375 C 5.613281 -2.597656 5.09375 -4.351562 5.09375 -6.625 L 5.09375 -23.21875 L 0.21875 -23.21875 L 0.21875 -26.765625 L 5.09375 -26.765625 L 5.09375 -33.25 Z M 9.671875 -33.25 "/></g></g></g><g fill="#08f2e0" fill-opacity="1"><g transform="translate(158.110079, 204.749987)"><g><path d="M 14.5625 0.5 C 10.9375 0.5 7.984375 -0.691406 5.703125 -3.078125 C 3.429688 -5.460938 2.296875 -8.648438 2.296875 -12.640625 L 2.296875 -13.484375 C 2.296875 -16.140625 2.800781 -18.507812 3.8125 -20.59375 C 4.832031 -22.675781 6.253906 -24.304688 8.078125 -25.484375 C 9.898438 -26.660156 11.875 -27.25 14 -27.25 C 17.476562 -27.25 20.179688 -26.101562 22.109375 -23.8125 C 24.035156 -21.519531 25 -18.238281 25 -13.96875 L 25 -12.078125 L 6.875 -12.078125 C 6.9375 -9.429688 7.707031 -7.296875 9.1875 -5.671875 C 10.664062 -4.046875 12.539062 -3.234375 14.8125 -3.234375 C 16.425781 -3.234375 17.796875 -3.5625 18.921875 -4.21875 C 20.046875 -4.882812 21.023438 -5.757812 21.859375 -6.84375 L 24.65625 -4.671875 C 22.414062 -1.222656 19.050781 0.5 14.5625 0.5 Z M 14 -23.5 C 12.15625 -23.5 10.601562 -22.828125 9.34375 -21.484375 C 8.09375 -20.140625 7.320312 -18.253906 7.03125 -15.828125 L 20.4375 -15.828125 L 20.4375 -16.171875 C 20.300781 -18.492188 19.671875 -20.296875 18.546875 -21.578125 C 17.429688 -22.859375 15.914062 -23.5 14 -23.5 Z M 14 -23.5 "/></g></g></g><g fill="#08f2e0" fill-opacity="1"><g transform="translate(184.942868, 204.749987)"><g/></g></g><g fill="#08f2e0" fill-opacity="1"><g transform="translate(197.481323, 204.749987)"><g><path d="M 11.953125 -11.359375 L 12.640625 -6.609375 L 13.65625 -10.890625 L 20.78125 -36.015625 L 24.78125 -36.015625 L 31.734375 -10.890625 L 32.71875 -6.53125 L 33.484375 -11.375 L 39.078125 -36.015625 L 43.859375 -36.015625 L 35.125 0 L 30.796875 0 L 23.375 -26.25 L 22.8125 -28.984375 L 22.234375 -26.25 L 14.546875 0 L 10.21875 0 L 1.515625 -36.015625 L 6.265625 -36.015625 Z M 11.953125 -11.359375 "/></g></g></g><g fill="#08f2e0" fill-opacity="1"><g transform="translate(242.416982, 204.749987)"><g><path d="M 19.984375 0 C 19.722656 -0.53125 19.507812 -1.46875 19.34375 -2.8125 C 17.21875 -0.601562 14.675781 0.5 11.71875 0.5 C 9.082031 0.5 6.921875 -0.242188 5.234375 -1.734375 C 3.546875 -3.234375 2.703125 -5.128906 2.703125 -7.421875 C 2.703125 -10.203125 3.757812 -12.363281 5.875 -13.90625 C 7.988281 -15.445312 10.96875 -16.21875 14.8125 -16.21875 L 19.265625 -16.21875 L 19.265625 -18.328125 C 19.265625 -19.929688 18.785156 -21.207031 17.828125 -22.15625 C 16.878906 -23.101562 15.472656 -23.578125 13.609375 -23.578125 C 11.972656 -23.578125 10.601562 -23.160156 9.5 -22.328125 C 8.394531 -21.503906 7.84375 -20.507812 7.84375 -19.34375 L 3.234375 -19.34375 C 3.234375 -20.675781 3.707031 -21.960938 4.65625 -23.203125 C 5.601562 -24.453125 6.890625 -25.4375 8.515625 -26.15625 C 10.140625 -26.882812 11.925781 -27.25 13.875 -27.25 C 16.957031 -27.25 19.375 -26.476562 21.125 -24.9375 C 22.875 -23.394531 23.78125 -21.273438 23.84375 -18.578125 L 23.84375 -6.265625 C 23.84375 -3.804688 24.15625 -1.847656 24.78125 -0.390625 L 24.78125 0 Z M 12.390625 -3.484375 C 13.828125 -3.484375 15.1875 -3.851562 16.46875 -4.59375 C 17.757812 -5.34375 18.691406 -6.3125 19.265625 -7.5 L 19.265625 -12.984375 L 15.6875 -12.984375 C 10.070312 -12.984375 7.265625 -11.34375 7.265625 -8.0625 C 7.265625 -6.625 7.742188 -5.5 8.703125 -4.6875 C 9.660156 -3.882812 10.890625 -3.484375 12.390625 -3.484375 Z M 12.390625 -3.484375 "/></g></g></g><g fill="#08f2e0" fill-opacity="1"><g transform="translate(269.96696, 204.749987)"><g><path d="M 8.4375 0 L 3.859375 0 L 3.859375 -38 L 8.4375 -38 Z M 8.4375 0 "/></g></g></g><g fill="#08f2e0" fill-opacity="1"><g transform="translate(282.25812, 204.749987)"><g><path d="M 8.4375 0 L 3.859375 0 L 3.859375 -38 L 8.4375 -38 Z M 8.4375 0 "/></g></g></g><g fill="#08f2e0" fill-opacity="1"><g transform="translate(294.549257, 204.749987)"><g><path d="M 14.5625 0.5 C 10.9375 0.5 7.984375 -0.691406 5.703125 -3.078125 C 3.429688 -5.460938 2.296875 -8.648438 2.296875 -12.640625 L 2.296875 -13.484375 C 2.296875 -16.140625 2.800781 -18.507812 3.8125 -20.59375 C 4.832031 -22.675781 6.253906 -24.304688 8.078125 -25.484375 C 9.898438 -26.660156 11.875 -27.25 14 -27.25 C 17.476562 -27.25 20.179688 -26.101562 22.109375 -23.8125 C 24.035156 -21.519531 25 -18.238281 25 -13.96875 L 25 -12.078125 L 6.875 -12.078125 C 6.9375 -9.429688 7.707031 -7.296875 9.1875 -5.671875 C 10.664062 -4.046875 12.539062 -3.234375 14.8125 -3.234375 C 16.425781 -3.234375 17.796875 -3.5625 18.921875 -4.21875 C 20.046875 -4.882812 21.023438 -5.757812 21.859375 -6.84375 L 24.65625 -4.671875 C 22.414062 -1.222656 19.050781 0.5 14.5625 0.5 Z M 14 -23.5 C 12.15625 -23.5 10.601562 -22.828125 9.34375 -21.484375 C 8.09375 -20.140625 7.320312 -18.253906 7.03125 -15.828125 L 20.4375 -15.828125 L 20.4375 -16.171875 C 20.300781 -18.492188 19.671875 -20.296875 18.546875 -21.578125 C 17.429688 -22.859375 15.914062 -23.5 14 -23.5 Z M 14 -23.5 "/></g></g></g><g fill="#08f2e0" fill-opacity="1"><g transform="translate(321.382034, 204.749987)"><g><path d="M 9.671875 -33.25 L 9.671875 -26.765625 L 14.671875 -26.765625 L 14.671875 -23.21875 L 9.671875 -23.21875 L 9.671875 -6.625 C 9.671875 -5.550781 9.890625 -4.742188 10.328125 -4.203125 C 10.773438 -3.671875 11.535156 -3.40625 12.609375 -3.40625 C 13.140625 -3.40625 13.867188 -3.503906 14.796875 -3.703125 L 14.796875 0 C 13.585938 0.332031 12.414062 0.5 11.28125 0.5 C 9.238281 0.5 7.695312 -0.117188 6.65625 -1.359375 C 5.613281 -2.597656 5.09375 -4.351562 5.09375 -6.625 L 5.09375 -23.21875 L 0.21875 -23.21875 L 0.21875 -26.765625 L 5.09375 -26.765625 L 5.09375 -33.25 Z M 9.671875 -33.25 "/></g></g></g></svg>