<svg xmlns="http://www.w3.org/2000/svg" xmlns:xlink="http://www.w3.org/1999/xlink" width="500" zoomAndPan="magnify" viewBox="0 0 375 374.999991" height="500" preserveAspectRatio="xMidYMid meet" version="1.0"><defs><clipPath id="id1"><path d="M 59.773438 5 L 315.523438 5 L 315.523438 369.960938 L 59.773438 369.960938 Z M 59.773438 5 " clip-rule="nonzero"/></clipPath></defs><g clip-path="url(#id1)"><path fill="#08f2e0" d="M 292.9375 336.730469 C 292.933594 339.566406 291.792969 342.097656 289.878906 344.019531 C 287.949219 345.933594 285.40625 347.074219 282.550781 347.074219 L 92.757812 347.074219 C 89.890625 347.066406 87.359375 345.933594 85.433594 344.027344 C 83.523438 342.105469 82.386719 339.574219 82.382812 336.730469 L 82.382812 185.125 C 82.386719 182.285156 83.519531 179.753906 85.433594 177.832031 C 87.359375 175.921875 89.898438 174.785156 92.757812 174.78125 L 282.550781 174.78125 C 285.398438 174.78125 287.941406 175.921875 289.878906 177.832031 C 291.792969 179.765625 292.933594 182.296875 292.9375 185.125 Z M 130.871094 47.523438 C 143.25 35.195312 160.21875 27.601562 179.082031 27.597656 L 196.242188 27.597656 C 215.105469 27.601562 232.078125 35.195312 244.457031 47.523438 C 256.804688 59.875 264.417969 76.808594 264.421875 95.636719 L 264.421875 152.222656 L 110.902344 152.222656 L 110.902344 95.636719 C 110.910156 76.808594 118.511719 59.875 130.871094 47.523438 Z M 287.027344 152.570312 L 287.027344 95.636719 C 287.019531 45.59375 246.386719 5.042969 196.242188 5.039062 L 179.082031 5.039062 C 128.9375 5.042969 88.300781 45.59375 88.296875 95.636719 L 88.296875 152.5625 C 72.195312 154.765625 59.8125 168.476562 59.773438 185.125 L 59.773438 336.730469 C 59.808594 354.894531 74.53125 369.597656 92.757812 369.632812 L 282.550781 369.632812 C 300.757812 369.585938 315.5 354.917969 315.542969 336.730469 L 315.542969 185.125 C 315.5 168.46875 303.109375 154.785156 287.027344 152.570312 " fill-opacity="1" fill-rule="nonzero"/></g><path fill="#08f2e0" d="M 210.265625 240.246094 C 210.265625 227.789062 200.144531 217.691406 187.660156 217.691406 C 175.175781 217.691406 165.054688 227.789062 165.054688 240.246094 C 165.054688 249.433594 170.578125 257.304688 178.472656 260.824219 L 162.34375 304.160156 L 212.972656 304.160156 L 196.847656 260.824219 C 204.738281 257.304688 210.265625 249.433594 210.265625 240.246094 " fill-opacity="1" fill-rule="nonzero"/></svg>