<svg width="44" height="58" viewBox="0 0 44 58" fill="none" xmlns="http://www.w3.org/2000/svg">
<g clip-path="url(#clip0_171_129)">
<path d="M36.1768 54.3101C37.6378 54.3101 38.8218 53.1593 38.8218 51.7408V49.7704C38.8218 49.2978 38.4276 48.9142 37.9403 48.9142C37.4531 48.9142 37.0589 49.2978 37.0589 49.7704V51.7408C37.0589 51.9676 36.9659 52.1858 36.8008 52.3462C36.635 52.5066 36.411 52.597 36.1768 52.597C35.6903 52.597 35.2954 52.9806 35.2954 53.4532C35.2954 53.9265 35.6903 54.3101 36.1768 54.3101L36.1768 54.3101Z" fill="black"/>
<path d="M43.5921 22.1476H40.2417V12.3753C40.2403 12.2729 40.2192 12.1711 40.1799 12.0758V12.0157L35.639 3.49383H35.6398C35.4885 3.20772 35.186 3.02757 34.8551 3.02757C34.5242 3.02757 34.221 3.20772 34.0704 3.49383L29.494 11.9819C29.43 12.1034 29.3965 12.2383 29.3973 12.3754V22.1477H25.1386V19.4412C25.1386 18.9686 24.7445 18.585 24.2572 18.585C23.77 18.585 23.3758 18.9686 23.3758 19.4412V22.1477H20.6248V13.5827V13.5835C20.6262 13.5545 20.6262 13.5262 20.6248 13.498C20.6153 13.3864 20.5819 13.279 20.5281 13.1808C20.5004 13.132 20.4677 13.0861 20.4306 13.0437C20.3943 12.9999 20.3528 12.9597 20.3077 12.9236C20.2874 12.8848 20.2634 12.8473 20.2372 12.8127C19.2961 12.2363 18.7195 11.2373 18.7027 10.1571C18.7027 7.49371 20.7396 2.01175 22 2.01175C23.261 2.01175 25.2972 7.49317 25.2972 10.1571H25.298C25.2863 10.9999 24.9336 11.8046 24.3169 12.398C23.7003 12.9907 22.8683 13.3242 22.0001 13.3263C21.5135 13.3263 21.1187 13.7099 21.1187 14.1825C21.1187 14.6558 21.5135 15.0395 22.0001 15.0395C22.4655 15.0387 22.9287 14.9752 23.376 14.8508V15.6216C23.376 16.0949 23.7701 16.4785 24.2574 16.4785C24.7446 16.4785 25.1388 16.0949 25.1388 15.6216V14.1401C25.1439 14.0886 25.1439 14.037 25.1388 13.9861C26.346 13.0607 27.0535 11.6513 27.0608 10.1571C27.0608 8.27304 25.3765 0.299316 21.9999 0.299316C18.6234 0.299316 16.9391 8.23904 16.9391 10.1571C16.9391 11.6576 17.6474 13.0755 18.8611 14.0031V22.1478H16.507V10.1571C16.507 9.68453 16.1128 9.30092 15.6256 9.30092C15.1383 9.30092 14.7442 9.68453 14.7442 10.1571V22.1478H3.79366V20.4353H7.16148C7.64872 20.4353 8.04361 20.0517 8.04361 19.5784C8.04361 19.1058 7.64872 18.7222 7.16148 18.7222H3.79366V16.6156H9.73584C10.2231 16.6156 10.618 16.232 10.618 15.7587C10.618 15.2861 10.2231 14.9025 9.73584 14.9025H3.79366V13.1893H7.16148C7.64872 13.1893 8.04361 12.8057 8.04361 12.3331C8.04361 11.8598 7.64872 11.4762 7.16148 11.4762H3.79366V9.41266H9.73584C10.2231 9.41266 10.618 9.02905 10.618 8.55573C10.618 8.08311 10.2231 7.69951 9.73584 7.69951H3.79366V4.71058H14.7442V7.0828C14.7442 7.55542 15.1383 7.93903 15.6256 7.93903C16.1128 7.93903 16.507 7.55542 16.507 7.0828V3.85371C16.507 3.62694 16.4146 3.40865 16.2488 3.24827C16.0838 3.08791 15.859 2.99749 15.6256 2.99749H2.91221C2.42497 2.99749 2.03009 3.38109 2.03009 3.85371V22.1486H0.407648C-0.0788711 22.1486 -0.473755 22.5322 -0.473755 23.0055V27.8871C-0.473755 28.1145 -0.380669 28.3321 -0.215592 28.4932C-0.0497851 28.6536 0.174209 28.744 0.407648 28.744H1.65048L1.65121 51.741C1.65121 53.3305 2.30136 54.8558 3.45909 55.9803C4.6161 57.1043 6.18611 57.7359 7.82255 57.7359H36.1763C37.8133 57.7359 39.3834 57.1043 40.5403 55.9803C41.698 54.8557 42.3482 53.3305 42.3482 51.741V28.744H43.591C43.8252 28.744 44.0491 28.6536 44.215 28.4932C44.3801 28.3321 44.4731 28.1145 44.4731 27.8871V23.0055C44.4731 22.7781 44.3801 22.5605 44.215 22.4001C44.0492 22.239 43.8252 22.1486 43.591 22.1486L43.5921 22.1476ZM31.1609 12.5809L34.8195 5.72901L37.8703 11.5191H33.0211C32.5339 11.5191 32.1397 11.9027 32.1397 12.3754C32.1397 12.8487 32.5339 13.2323 33.0211 13.2323H38.4789V21.7972L36.6092 21.7965V15.6213C36.6092 15.1487 36.2143 14.7651 35.7278 14.7651C35.2405 14.7651 34.8464 15.1487 34.8464 15.6213V21.831H31.1608L31.1609 12.5809ZM42.7107 27.03H9.29504C8.80852 27.03 8.41364 27.4136 8.41364 27.8862C8.41364 28.3596 8.80852 28.7432 9.29504 28.7432H40.5847V51.7402C40.5847 52.8754 40.12 53.9648 39.2938 54.768C38.467 55.5712 37.3456 56.0226 36.1762 56.0226H7.82251C6.65386 56.0226 5.53243 55.5712 4.70565 54.768C3.87879 53.9648 3.41482 52.8754 3.41482 51.7402V28.7432H4.15514C4.64239 28.7432 5.03655 28.3596 5.03655 27.8862C5.03655 27.4136 4.64239 27.03 4.15514 27.03H1.2898V23.861H42.7276V27.03H42.7107Z" fill="black"/>
</g>
<defs>
<clipPath id="clip0_171_129">
<rect width="44" height="58" fill="white"/>
</clipPath>
</defs>
</svg>
