<?xml version="1.0" encoding="utf-8"?>
<!-- Generator: Adobe Illustrator 26.4.1, SVG Export Plug-In . SVG Version: 6.00 Build 0)  -->
<svg version="1.1" id="Layer_1" xmlns="http://www.w3.org/2000/svg" xmlns:xlink="http://www.w3.org/1999/xlink" x="0px" y="0px"
	 viewBox="0 0 350 350" style="enable-background:new 0 0 350 350;" xml:space="preserve">
<style type="text/css">
	.st0{stroke:#000000;stroke-width:4;stroke-miterlimit:10;}
</style>
<g>
	<path class="st0" d="M253.4,318.9c8.1,0,14.6-6.5,14.6-14.6v-11.2c0-2.7-2.2-4.9-4.9-4.9s-4.9,2.2-4.9,4.9v11.2
		c0,1.3-0.5,2.5-1.4,3.4c-0.9,0.9-2.2,1.4-3.4,1.4c-2.7,0-4.9,2.2-4.9,4.9C248.5,316.8,250.7,318.9,253.4,318.9L253.4,318.9z"/>
	<path class="st0" d="M294.4,135.9h-18.5V80.3c0-0.6-0.1-1.2-0.3-1.7v-0.3l-25.1-48.5h0c-0.8-1.6-2.5-2.7-4.3-2.7
		c-1.8,0-3.5,1-4.3,2.7L216.4,78c-0.4,0.7-0.5,1.5-0.5,2.2v55.6h-23.5v-15.4c0-2.7-2.2-4.9-4.9-4.9c-2.7,0-4.9,2.2-4.9,4.9v15.4
		h-15.2V87.2v0c0-0.2,0-0.3,0-0.5c-0.1-0.6-0.2-1.2-0.5-1.8c-0.2-0.3-0.3-0.5-0.5-0.8c-0.2-0.2-0.4-0.5-0.7-0.7
		c-0.1-0.2-0.2-0.4-0.4-0.6c-5.2-3.3-8.4-9-8.5-15.1c0-15.2,11.3-46.4,18.2-46.4c7,0,18.2,31.2,18.2,46.4h0c-0.1,4.8-2,9.4-5.4,12.8
		c-3.4,3.4-8,5.3-12.8,5.3c-2.7,0-4.9,2.2-4.9,4.9c0,2.7,2.2,4.9,4.9,4.9c2.6,0,5.1-0.4,7.6-1.1v4.4c0,2.7,2.2,4.9,4.9,4.9
		s4.9-2.2,4.9-4.9v-8.4c0-0.3,0-0.6,0-0.9c6.7-5.3,10.6-13.3,10.6-21.8c0-10.7-9.3-56.1-28-56.1s-28,45.2-28,56.1
		c0,8.5,3.9,16.6,10.6,21.9v46.4h-13V67.7c0-2.7-2.2-4.9-4.9-4.9c-2.7,0-4.9,2.2-4.9,4.9v68.2H74.3v-9.7H93c2.7,0,4.9-2.2,4.9-4.9
		c0-2.7-2.2-4.9-4.9-4.9H74.3v-12h32.9c2.7,0,4.9-2.2,4.9-4.9c0-2.7-2.2-4.9-4.9-4.9H74.3v-9.8H93c2.7,0,4.9-2.2,4.9-4.9
		c0-2.7-2.2-4.9-4.9-4.9H74.3V63.4h32.9c2.7,0,4.9-2.2,4.9-4.9c0-2.7-2.2-4.9-4.9-4.9H74.3v-17h60.5v13.5c0,2.7,2.2,4.9,4.9,4.9
		c2.7,0,4.9-2.2,4.9-4.9V31.8c0-1.3-0.5-2.5-1.4-3.4c-0.9-0.9-2.2-1.4-3.4-1.4H69.5c-2.7,0-4.9,2.2-4.9,4.9v104.1h-9
		c-2.7,0-4.9,2.2-4.9,4.9v27.8c0,1.3,0.5,2.5,1.4,3.4c0.9,0.9,2.2,1.4,3.4,1.4h6.9l0,130.9c0,9,3.6,17.7,10,24.1
		c6.4,6.4,15.1,10,24.1,10h156.8c9.1,0,17.7-3.6,24.1-10c6.4-6.4,10-15.1,10-24.1V173.4h6.9c1.3,0,2.5-0.5,3.4-1.4
		c0.9-0.9,1.4-2.2,1.4-3.4v-27.8c0-1.3-0.5-2.5-1.4-3.4C296.9,136.4,295.7,135.9,294.4,135.9L294.4,135.9z M225.7,81.5l20.2-39
		l16.9,33h-26.8c-2.7,0-4.9,2.2-4.9,4.9c0,2.7,2.2,4.9,4.9,4.9h30.2v48.7l-10.3,0V98.8c0-2.7-2.2-4.9-4.9-4.9
		c-2.7,0-4.9,2.2-4.9,4.9v35.3h-20.4L225.7,81.5z M289.5,163.7H104.8c-2.7,0-4.9,2.2-4.9,4.9c0,2.7,2.2,4.9,4.9,4.9h173v130.9
		c0,6.5-2.6,12.7-7.1,17.2c-4.6,4.6-10.8,7.1-17.2,7.1H96.6c-6.5,0-12.7-2.6-17.2-7.1c-4.6-4.6-7.1-10.8-7.1-17.2V173.4h4.1
		c2.7,0,4.9-2.2,4.9-4.9c0-2.7-2.2-4.9-4.9-4.9H60.5v-18h229.1L289.5,163.7L289.5,163.7z"/>
</g>
</svg>
