<?xml version="1.0" encoding="utf-8"?>
<!-- Generator: Adobe Illustrator 26.4.1, SVG Export Plug-In . SVG Version: 6.00 Build 0)  -->
<svg version="1.1" id="Layer_1" xmlns="http://www.w3.org/2000/svg" xmlns:xlink="http://www.w3.org/1999/xlink" x="0px" y="0px"
	 viewBox="0 0 350 350" style="enable-background:new 0 0 350 350;" xml:space="preserve">
<style type="text/css">
	.st0{fill:#FFFFFF;stroke:#FFFFFF;stroke-width:2;stroke-miterlimit:10;}
</style>
<path class="st0" d="M311.8,287.1c-0.2-0.1-15.6-6.8-12.8-18.5c3-12.4-1.7-32.6-14.6-43.7c-7.3-6.3-20-12-39.4-5.2l-23.4-23.4
	c-0.1-0.3-0.2-0.6-0.3-0.9c-2.7-4.9-5.5-9.7-8.3-14.4L297,96.9c3.9-3.9,6.1-9.1,6.1-14.7c0-5.5-2.2-10.8-6.1-14.7l-20.7-20.8
	c-7.8-7.8-21.5-7.8-29.4,0l-22.7,22.7c0,0,0,0,0,0c0,0,0,0,0,0l-53.5,53.6c-25.9-29.7-53.5-51.7-84.2-67C65.1,45.5,57,48,54.4,49.5
	c-0.8,0.5-1.4,1.1-1.8,1.8c-1.5,2.5-4,10.7,6.6,31.9c14.6,29.3,37.7,58.2,67,84.2l-73.4,73.4c-0.5,0.5-0.8,1-1.1,1.7
	c-0.1,0.1-0.1,0.3-0.2,0.4c0,0.1-0.1,0.2-0.2,0.4L35,301.9c-0.5,2,0,4.1,1.4,5.5c1.1,1.1,2.5,1.7,4,1.7c0.5,0,1-0.1,1.5-0.2
	l58.6-16.4c0.1,0,0.2-0.1,0.4-0.2c0.1-0.1,0.3-0.1,0.4-0.2c0.6-0.3,1.2-0.6,1.6-1.1l81.1-81.1c4.7,2.9,8.4,5,13.7,7.9l24.9,25
	c-1,6.6-1.1,21.6,11.7,40.2c10.6,15.5,28.2,22.2,45.7,22.2c11.4,0,22.7-2.8,32.1-8c1.9-1,3-3.1,2.9-5.2
	C315.1,289.8,313.7,287.9,311.8,287.1L311.8,287.1z M228.8,233l-19.7-19.7l6.8-6.8l19.7,19.7L228.8,233z M99,279.1l-13.1-13.1
	l163.4-163.4l13.1,13.1L99,279.1z M64.8,244.9L228.1,81.5l13.1,13.1L77.9,258L64.8,244.9z M254.8,54.8c3.6-3.6,9.9-3.6,13.5,0
	l20.7,20.8c1.8,1.8,2.8,4.2,2.8,6.7c0,2.5-1,4.9-2.8,6.7l-18.8,18.8l-17.1-17.1h0c0,0,0,0,0,0l-17.1-17.1L254.8,54.8z M69.3,78.3
	c-4.9-9.8-6.3-15.7-6.7-18.8c3.1,0.4,9,1.8,18.8,6.7c29.6,14.7,56.2,36,81.3,64.9l-28.4,28.4C105.7,134.4,83.3,106.4,69.3,78.3
	L69.3,78.3z M59.6,255.6l28.6,28.6l-39.7,11.1L59.6,255.6z M204.7,189.3c1.6,2.6,3.1,5.2,4.7,7.9l-9.2,9.2c-2.8-1.6-5.3-3-7.9-4.6
	L204.7,189.3z M243.7,276.6c-11.6-16.8-10.5-29.1-9.8-32.8l12.7-12.7c12.5-4.9,22.8-4.2,30.4,2.4c10.1,8.6,12.9,24.7,11,32.5
	c-2.7,11.1,3,19.7,9.6,25.4C278.9,297.3,255.6,293.9,243.7,276.6L243.7,276.6z"/>
</svg>
