<?xml version="1.0" encoding="utf-8"?>
<!-- Generator: Adobe Illustrator 26.4.1, SVG Export Plug-In . SVG Version: 6.00 Build 0)  -->
<svg version="1.1" id="Layer_1" xmlns="http://www.w3.org/2000/svg" xmlns:xlink="http://www.w3.org/1999/xlink" x="0px" y="0px"
	 viewBox="0 0 350 350" style="enable-background:new 0 0 350 350;" xml:space="preserve">
<style type="text/css">
	.st0{fill:#FFFFFF;stroke:#FFFFFF;stroke-width:0.25;stroke-miterlimit:10;}
</style>
<g>
	<path class="st0" d="M143.2,348.2h-10.6c-10.5,0-19.1-8.6-19.1-19.1v-5.8c-11.7-2.8-22.6-7.3-32.4-13.5l-4,4.1
		c-3.6,3.7-8.5,5.7-13.6,5.7c-5.1,0-9.9-2-13.5-5.6l-7.5-7.5c-7.4-7.4-7.4-19.5-0.1-26.9l4.3-4.3c-6.4-10.2-10.9-21.1-13.4-32.5
		h-5.7c-10.5,0-19.1-8.6-19.1-19.1v-10.6c0-10.5,8.6-19.1,19.1-19.1h5.7c2.6-11.3,7-22.2,13.4-32.4l-4-4c-7.5-7.5-7.5-19.6,0-27
		l7.5-7.5c3.6-3.6,8.4-5.6,13.5-5.6s9.9,2,13.5,5.6l4,4c10.2-6.3,21.1-10.8,32.4-13.4V108c0-10.5,8.6-19.1,19.1-19.1h10.6
		c10.5,0,19.1,8.6,19.1,19.1v5.7c11.3,2.6,22.2,7.1,32.5,13.4l4.3-4.3c3.6-3.5,8.4-5.5,13.4-5.5c5.1,0,9.9,2,13.5,5.6l7.5,7.5
		c3.6,3.6,5.6,8.5,5.6,13.6c0,5.1-2.1,9.9-5.7,13.5l-4.1,4c6.2,9.8,10.7,20.7,13.5,32.4h5.8c10.5,0,19.1,8.6,19.1,19.1v10.6
		c0,10.5-8.6,19.1-19.1,19.1h-5.8c-2.8,11.7-7.3,22.6-13.6,32.5l4.3,4.3c7.5,7.5,7.5,19.6,0,27l-7.5,7.5c-3.6,3.6-8.4,5.6-13.5,5.6
		s-9.9-2-13.5-5.6l-4.3-4.3c-9.8,6.2-20.7,10.8-32.5,13.6v5.8C162.3,339.7,153.8,348.2,143.2,348.2L143.2,348.2z M80.1,292.5
		c1.5,0,3.1,0.5,4.4,1.4c11,8,23.7,13.3,37.9,15.8c3.6,0.6,6.2,3.8,6.2,7.4v11.9c0,2.2,1.8,4,4,4h10.6c2.2,0,4-1.8,4-4v-11.9
		c0-3.7,2.6-6.8,6.2-7.4c14.1-2.5,26.9-7.9,37.9-15.8c3-2.2,7.2-1.9,9.8,0.8l8.7,8.7c0.8,0.8,1.8,1.2,2.8,1.2s2.1-0.4,2.8-1.2
		l7.5-7.5c1.6-1.6,1.6-4.1,0-5.6l-8.7-8.7c-2.6-2.6-3-6.8-0.8-9.8c8-11,13.3-23.7,15.8-37.9c0.6-3.6,3.8-6.2,7.4-6.2h11.9
		c2.2,0,4-1.8,4-4v-10.6c0-2.2-1.8-4-4-4h-11.9c-3.7,0-6.8-2.6-7.4-6.2c-2.5-14.1-7.9-26.9-15.8-37.9c-2.2-3-1.8-7.2,0.8-9.8
		l8.5-8.4c0.8-0.8,1.2-1.8,1.2-2.8c0-1.1-0.4-2.1-1.2-2.8l-7.5-7.5c-0.8-0.8-1.8-1.2-2.8-1.2c-1.1,0-2,0.4-2.8,1.1l-8.7,8.5
		c-2.6,2.6-6.6,2.9-9.6,0.8c-11.7-8.2-24.4-13.5-37.8-15.6c-3.7-0.6-6.4-3.8-6.4-7.5V108c0-2.2-1.8-4-4-4h-10.6c-2.2,0-4,1.8-4,4
		v11.9c0,3.7-2.7,6.9-6.4,7.5c-13.4,2.1-26.1,7.4-37.8,15.6c-3,2.1-7.1,1.7-9.7-0.8l-8.4-8.4c-0.8-0.8-1.8-1.2-2.8-1.2
		c-1.1,0-2.1,0.4-2.8,1.2l-7.5,7.5c-1.6,1.6-1.6,4.1,0,5.6l8.4,8.4c2.6,2.6,2.9,6.7,0.8,9.7c-8.2,11.7-13.5,24.5-15.6,37.8
		c-0.6,3.7-3.8,6.4-7.5,6.4l-11.9,0c-2.2,0-4,1.8-4,4v10.6c0,2.2,1.8,4,4,4h11.9c3.7,0,6.9,2.7,7.5,6.4c2.1,13.4,7.4,26.1,15.6,37.8
		c2.1,3,1.8,7-0.8,9.6l-8.5,8.7c-1.5,1.6-1.5,4.1,0,5.6l7.5,7.5c0.8,0.8,1.8,1.2,2.8,1.2c0.6,0,1.8-0.2,2.8-1.2l8.4-8.5
		C76.2,293.2,78.1,292.5,80.1,292.5L80.1,292.5z"/>
	<path class="st0" d="M137.9,281.8c-35,0-63.4-28.4-63.4-63.4c0-35.8,29.8-64.8,65.9-63.4c32.9,1.3,59.6,28,60.9,60.9
		c0.7,17.4-5.6,33.9-17.7,46.4C171.5,274.9,155.3,281.8,137.9,281.8L137.9,281.8z M137.9,170.1c-26.6,0-48.3,21.7-48.3,48.3
		s21.7,48.3,48.3,48.3c13.2,0,25.6-5.3,34.8-14.8c9.2-9.6,14-22.1,13.5-35.4c-1-25-21.3-45.4-46.4-46.4
		C139.2,170.1,138.5,170.1,137.9,170.1L137.9,170.1z"/>
	<path class="st0" d="M307.2,176.4c-3.4,0-6.7-1-9.6-3l-7.8-5.4c-3.4-2.4-4.3-7.1-1.9-10.5c2.4-3.4,7.1-4.3,10.5-1.9l7.8,5.4
		c0.5,0.3,0.9,0.3,1.2,0.3c0.3-0.1,0.7-0.2,1-0.7l4.8-6.9c0.3-0.5,0.3-0.9,0.3-1.2c-0.1-0.3-0.2-0.7-0.7-1.1l-7.8-5.4
		c-3-2.1-4.1-6-2.5-9.4c4.7-10.2,7-20.7,6.8-31.2c-0.1-3.7,2.6-7,6.3-7.6l9.4-1.6c0.6-0.1,0.9-0.4,1.1-0.7c0.2-0.3,0.4-0.7,0.3-1.2
		l-1.5-8.3c-0.2-0.9-1-1.5-1.9-1.3l-9.6,1.6c-3.6,0.6-7.1-1.4-8.4-4.9c-3.8-10.5-9.6-19.5-17.2-26.8c-2.7-2.6-3.1-6.7-0.9-9.8
		l5.4-7.8c0.3-0.5,0.3-0.9,0.3-1.2c-0.1-0.3-0.2-0.7-0.7-1.1l-6.9-4.8c-0.5-0.3-0.9-0.3-1.2-0.3c-0.3,0.1-0.7,0.2-1.1,0.7l-5.4,7.8
		c-2.1,3-6.2,4.1-9.5,2.5c-9.5-4.6-19.9-6.9-31-6.9c0,0,0,0-0.1,0c-3.7,0-6.8-2.6-7.4-6.2l-1.6-9.3c-0.1-0.5-0.4-0.9-0.7-1.1
		c-0.3-0.2-0.7-0.4-1.2-0.3l-8.3,1.5c-0.5,0.1-0.9,0.4-1.1,0.7c-0.2,0.3-0.4,0.7-0.3,1.2l1.7,9.3c0.6,3.6-1.4,7.2-4.9,8.4
		c-10.5,3.8-19.5,9.6-26.8,17.2c-2.6,2.7-6.7,3.1-9.8,0.9l-7.8-5.4c-0.5-0.3-0.9-0.3-1.2-0.3c-0.3,0.1-0.7,0.2-1.1,0.7l-4.8,6.9
		c-0.5,0.7-0.3,1.7,0.4,2.3l7.8,5.4c3.4,2.4,4.3,7.1,1.9,10.5c-2.4,3.4-7.1,4.3-10.5,1.9l-7.8-5.4c-7.6-5.3-9.4-15.8-4.1-23.3
		l4.8-6.9c2.6-3.7,6.4-6.1,10.8-6.9c4.4-0.8,8.8,0.2,12.5,2.8l2.7,1.9c6.4-5.7,13.8-10.4,21.9-14l-0.6-3.3
		c-0.8-4.4,0.2-8.8,2.8-12.5s6.4-6.1,10.8-6.9l8.3-1.5c4.4-0.8,8.8,0.2,12.5,2.8s6.1,6.4,6.9,10.8l0.6,3.3
		c8.9,0.6,17.3,2.5,25.4,5.6l1.9-2.7c2.6-3.7,6.4-6.1,10.8-6.9c4.4-0.8,8.8,0.2,12.5,2.8l6.9,4.8c3.7,2.6,6.1,6.4,6.9,10.8
		c0.8,4.4-0.2,8.8-2.8,12.5l-1.9,2.7c5.7,6.5,10.4,13.8,14,21.9l3.6-0.6c9-1.5,17.7,4.6,19.3,13.6l1.5,8.3c0.8,4.4-0.2,8.9-2.8,12.6
		s-6.5,6.1-10.9,6.9l-3.2,0.5c-0.5,8.6-2.4,17.1-5.6,25.4l2.8,1.9c3.7,2.6,6.1,6.4,6.9,10.8c0.8,4.4-0.2,8.8-2.8,12.5l-4.8,6.9
		c-2.6,3.7-6.4,6.1-10.8,6.9C309.1,176.3,308.1,176.4,307.2,176.4L307.2,176.4z"/>
	<path class="st0" d="M274.8,137.3c-1.4,0-2.8-0.4-4.1-1.2c-3.5-2.3-4.5-6.9-2.3-10.4c10.3-16.1,6.5-37.7-8.7-49.3
		c-8.1-6.1-18-8.6-28-7c-10,1.6-18.7,7-24.5,15.3c-2.4,3.4-7.1,4.3-10.5,1.9c-3.4-2.4-4.3-7.1-1.9-10.5
		c8.2-11.7,20.4-19.3,34.5-21.6c14.1-2.2,28.1,1.3,39.5,9.9c21.5,16.3,26.9,46.8,12.3,69.5C279.8,136.1,277.3,137.3,274.8,137.3
		L274.8,137.3z"/>
</g>
</svg>
