<?xml version="1.0" encoding="utf-8"?>
<!-- Generator: Adobe Illustrator 26.4.1, SVG Export Plug-In . SVG Version: 6.00 Build 0)  -->
<svg version="1.1" id="Layer_1" xmlns="http://www.w3.org/2000/svg" xmlns:xlink="http://www.w3.org/1999/xlink" x="0px" y="0px"
	 viewBox="0 0 350 350" style="enable-background:new 0 0 350 350;" xml:space="preserve">
<style type="text/css">
	.st0{fill:#FFFFFF;stroke:#FFFFFF;stroke-width:4;stroke-miterlimit:10;}
</style>
<g>
	<path class="st0" d="M341.6,117.8l-78.4-78.4c-4.2-4.2-11.5-4.2-15.7,0l-21.7,21.7c-4.3,4.3-4.3,11.3,0,15.7l3.5,3.5
		c-13.3,3.6-36.3,10-54.3,17c-18.1-6.9-41.3-13.5-54.4-17l3.6-3.6c2.1-2.1,3.2-4.9,3.2-7.8c0-3-1.2-5.7-3.2-7.8l-21.7-21.7
		c-4.2-4.2-11.5-4.2-15.7,0L8.4,117.8c-2.1,2.1-3.2,4.9-3.2,7.8c0,3,1.1,5.7,3.2,7.8l21.7,21.7c2.1,2.1,4.9,3.3,7.8,3.3
		c2.9,0,5.5-1.1,7.6-3.1c2.9,12.1,7.8,32,10.4,42.7c1.7,7,10.6,19.7,26.4,37.8c0.7,4.1,2.7,7.9,5.7,11c4,4,9.1,6,14.2,6.1
		c0,0.2,0,0.3,0,0.5c0.2,5.1,2.4,10,6.1,13.7c3.8,3.8,9,6,14.2,6.1c0.1,5.1,2.1,10.2,6.1,14.2c3.8,3.8,9,6,14.2,6.1
		c0.1,5.1,2.1,10.2,6.1,14.2c3.9,3.9,9.2,6.1,14.5,6.1c5,0,9.6-1.9,13.1-5.3l4.8-4.8c2.6,1.4,6.1,2.7,10.3,2.7c0.7,0,1.5,0,2.3-0.1
		c6.1-0.7,11.5-4.1,16.2-10.2c6.8-1.1,16.5-5.3,20.3-15.3c7.3-1.6,17.1-6.8,20.4-18.7c3.8-1.7,9.6-5.2,12.2-11.9
		c1.2-3.1,1.6-6.4,1.1-10c12.8-14.4,27.7-32.6,30-41.9c2.7-10.7,7.5-30.6,10.4-42.7c2.1,2,4.7,3.1,7.6,3.1c3,0,5.7-1.1,7.8-3.3
		l21.7-21.7c2.1-2.1,3.3-4.9,3.3-7.8C344.8,122.7,343.7,119.9,341.6,117.8L341.6,117.8z M38,146.8L16.5,126l77.8-78.4l21.7,21.2
		L38,146.8z M55.1,145.9l56.2-56.2c8.2,2.1,29.5,7.8,48.5,14.3c-3.4,1.8-6.2,3.5-8.1,5.2c-6.7,5.9-12.6,15.9-19.3,27.4
		c-8.4,14.3-17.8,30.4-30.2,40c-12.7,9.8-8.1,18.8-6.4,21.3c1.6,2.4,4,4.3,7,6l-15.4,15.4c-0.8,0.8-1.4,1.6-2,2.4
		c-12-14.4-17.4-23-18.2-26.4C63.9,182.3,57.4,155.5,55.1,145.9L55.1,145.9z M96.2,238.7c-1.7-1.7-2.7-3.8-2.7-6.1
		c-0.1-2.1,0.6-3.9,2-5.3l19.4-19.4c6,1.1,12.7,1.3,19.2,0.4c0.4,2.4-0.1,4.8-1.8,6.4l-24.7,24.7C104.6,242.4,99.5,242.1,96.2,238.7
		L96.2,238.7z M116.4,259c-1.7-1.7-2.7-3.8-2.7-6.1c-0.1-2.1,0.6-3.9,2-5.3l24.7-24.7h0c1.3-1.3,3-2,5-2c2.3,0,4.6,1,6.4,2.7
		c3.3,3.3,3.7,8.4,0.8,11.4l-24.7,24.7C125,262.6,119.6,262.2,116.4,259L116.4,259z M136.7,279.2c-3.3-3.4-3.7-8.4-0.8-11.4
		l24.7-24.7c1.3-1.3,3-2,5-2c2.3,0,4.6,1,6.4,2.7c1.7,1.7,2.7,3.8,2.7,6.1c0.1,2.1-0.6,3.9-2,5.3L148,280
		C145.2,282.8,139.9,282.4,136.7,279.2L136.7,279.2z M168.3,300.3c-2.8,2.8-8.2,2.4-11.3-0.8c-3.3-3.3-3.7-8.4-0.8-11.4l24.7-24.7
		c1.3-1.3,3-2,5-2c2.3,0,4.6,1,6.4,2.7c3.3,3.4,3.7,8.4,0.8,11.4L168.3,300.3z M252.2,245.7c-1.8,4.6-7.9,6.2-7.9,6.2
		c-2.2,0.6-3.9,2.4-4.3,4.7c-1.9,11.9-13.4,13-14.6,13.1c-2.7,0.1-4.9,2.1-5.3,4.7c-1.8,9.6-13.2,10.4-13.7,10.4
		c-1.8,0.1-3.5,1-4.5,2.5c-3,4.5-6.2,7-9.5,7.4c-0.8,0.1-1.6,0-2.4-0.1l11-11c7.4-7.4,7-19.8-0.8-27.6c-3.8-3.8-9-5.8-14.2-5.9
		c0-5.1-2-10.4-6.1-14.4c-3.8-3.8-9-5.8-14.2-5.9c0-5.1-2-10.4-6.1-14.4c-3.8-3.8-9-5.8-14.2-5.9c0-1.3-0.1-2.7-0.4-4
		c2.8-1,5.4-2.2,7.8-3.7c8.4-5.1,19.2-18,25.9-30.1c6.7,4,18.8,8.7,35.3,6.2l34.2,53.2C251.1,235.5,253.9,241.4,252.2,245.7
		L252.2,245.7z M282.9,195.3c-0.9,3.7-7.7,14.4-23.3,32.4c-0.5-0.8-0.9-1.6-1.5-2.5l-32.1-49.9c3.2-1.1,6.6-2.4,10.1-4.1l-5-10.3
		c-31.7,15.3-49.8-1-50.5-1.6c-1.4-1.3-3.3-1.9-5.1-1.5c-1.8,0.4-3.4,1.6-4.1,3.4c-4.9,11.3-16.7,26.5-24.4,31.2
		c-14.1,8.7-37.9,4.8-41.9-0.9c-1.1-1.6,2.7-4.8,3.9-5.7c14.2-10.9,24.3-28.1,33.1-43.3c6-10.2,11.6-19.9,17-24.5
		c9.3-8.1,51.4-20.9,79.5-28.1l56.2,56.2C292.6,155.5,286.1,182.3,282.9,195.3L282.9,195.3z M312,146.8l-78.1-77.6l21.2-21.7
		l78.4,77.8L312,146.8z"/>
	<path class="st0" d="M320.7,124.8c0,4.4-3.6,8-8,8c-4.4,0-8-3.6-8-8c0-4.4,3.6-8,8-8C317.1,116.8,320.7,120.4,320.7,124.8"/>
	<path class="st0" d="M45.3,124.8c0,4.4-3.6,8-8,8s-8-3.6-8-8c0-4.4,3.6-8,8-8S45.3,120.4,45.3,124.8"/>
</g>
</svg>
