<?xml version="1.0" encoding="utf-8"?>
<!-- Generator: Adobe Illustrator 26.4.1, SVG Export Plug-In . SVG Version: 6.00 Build 0)  -->
<svg version="1.1" id="Layer_1" xmlns="http://www.w3.org/2000/svg" xmlns:xlink="http://www.w3.org/1999/xlink" x="0px" y="0px"
	 viewBox="0 0 350 350" style="enable-background:new 0 0 350 350;" xml:space="preserve">
<style type="text/css">
	.st0{clip-path:url(#SVGID_00000001660331883782547930000010427265542573770162_);}
	.st1{fill:#FFFFFF;}
</style>
<g>
	<defs>
		<rect id="SVGID_1_" x="14.5" y="47.1" width="321" height="255.8"/>
	</defs>
	<clipPath id="SVGID_00000078763946961579707930000011842277455226645146_">
		<use xlink:href="#SVGID_1_"  style="overflow:visible;"/>
	</clipPath>
	<g style="clip-path:url(#SVGID_00000078763946961579707930000011842277455226645146_);">
		<path class="st1" d="M335.5,77.3c0-16.5-13.7-29.8-30.5-29.8c-16.8,0-30.5,13.4-30.5,29.8c0,5.5,1.5,10.6,4.2,15l-39.2,56.4
			c-3.4-1.3-7.1-2-11-2c-11.3,0-21.1,6-26.4,15l-39.4-12.4c0.1-0.7,0.1-1.5,0.1-2.3c0-16.5-13.7-29.8-30.5-29.8
			c-16.8,0-30.5,13.4-30.5,29.8c0,5.1,1.3,9.8,3.6,14l-45.7,37.6c-4.3-2.3-9.3-3.7-14.6-3.7c-16.8,0-30.5,13.4-30.5,29.8
			c0,13.7,9.6,25.3,22.5,28.8v41c0,4.3,3.6,7.8,8,7.8h260c4.4,0,8-3.5,8-7.8V106.1C325.9,102.6,335.5,91.1,335.5,77.3L335.5,77.3z
			 M236.5,205.4c12.9-3.5,22.5-15,22.5-28.7c0-7-2.5-13.4-6.6-18.5l38-54.6c2.1,1.1,4.3,2,6.6,2.6v180.7h-60.5L236.5,205.4z
			 M228.5,162.5c8,0,14.5,6.3,14.5,14.1s-6.5,14.1-14.5,14.1c-8,0-14.5-6.3-14.5-14.1C214,168.8,220.5,162.5,228.5,162.5z M198,177
			c0.2,13.6,9.6,25,22.5,28.4l0,81.4h-80.2v-111c7-1.9,12.9-6.1,17-11.7L198,177z M75.5,224.9c0-5.6-1.6-10.7-4.3-15.2l45.1-37.2
			c2.4,1.4,5,2.6,7.8,3.3l0,111H53v-33.2C66,250.2,75.5,238.6,75.5,224.9L75.5,224.9z M132.2,132.9c8,0,14.5,6.3,14.5,14.1
			c0,7.8-6.5,14.1-14.5,14.1c-8,0-14.5-6.3-14.5-14.1C117.8,139.3,124.2,132.9,132.2,132.9z M30.5,224.9c0-7.8,6.5-14.1,14.5-14.1
			c8,0,14.5,6.3,14.5,14.1S53,239,45,239C37,239,30.5,232.7,30.5,224.9z M305,91.5c-8,0-14.5-6.3-14.5-14.1
			c0-7.8,6.5-14.1,14.5-14.1c8,0,14.5,6.3,14.5,14.1C319.4,85.1,313,91.5,305,91.5z"/>
	</g>
</g>
</svg>
