<?xml version="1.0" standalone="no"?>
<!DOCTYPE svg PUBLIC "-//W3C//DTD SVG 1.1//EN" "http://www.w3.org/Graphics/SVG/1.1/DTD/svg11.dtd"><svg xmlns="http://www.w3.org/2000/svg" style="background-color:#FFF" width="500" height="500"><path stroke="black" fill="none" stroke-width="1" d="M67.75, 193.33L67.23, 196.02L66.36, 198.38L65.12, 200.43L63.53, 202.14L61.61, 203.5L59.4, 204.47L56.89, 205.06L54.09, 205.25L51.06, 204.96L48.35, 204.11L45.95, 202.68L43.86, 200.67L42.18, 198.19L40.98, 195.32L40.26, 192.07L40.02, 188.42L40.02, 184.97L40.13, 182.53L40.46, 180.25L41.03, 178.12L41.81, 176.14L42.8, 174.35L43.98, 172.77L45.34, 171.42L46.89, 170.28L48.6, 169.39L50.44, 168.75L52.42, 168.36L54.52, 168.23L57.24, 168.43L59.68, 169.04L61.84, 170.04L63.72, 171.44L65.27, 173.19L66.46, 175.26L67.29, 177.63L67.75, 180.31L62.97, 180.31L62.57, 178.31L61.99, 176.61L61.23, 175.2L60.28, 174.09L59.15, 173.25L57.81, 172.64L56.26, 172.28L54.52, 172.16L52.36, 172.37L50.46, 173L48.79, 174.05L47.38, 175.52L46.25, 177.38L45.44, 179.59L44.96, 182.16L44.8, 185.09L44.8, 188.58L44.95, 191.36L45.41, 193.84L46.17, 196.02L47.23, 197.91L48.58, 199.42L50.17, 200.5L52.01, 201.14L54.09, 201.36L55.95, 201.25L57.59, 200.91L58.99, 200.36L60.16, 199.58L61.13, 198.52L61.92, 197.12L62.53, 195.39L62.97, 193.33L67.75, 193.33"/><path stroke="black" fill="none" stroke-width="1" d="M86.45, 182.09L84.18, 181.92L82.12, 182.16L80.41, 182.88L79.06, 184.08L78.07, 185.75L78.07, 204.75L73.51, 204.75L73.51, 177.98L77.97, 177.98L78.03, 181.08L79.27, 179.51L80.75, 178.4L82.47, 177.72L84.42, 177.5L85.59, 177.59L86.45, 177.84L86.45, 182.09"/><path stroke="black" fill="none" stroke-width="1" d="M101.75, 205.25L99.15, 205.03L96.81, 204.36L94.72, 203.24L92.89, 201.67L91.39, 199.73L90.33, 197.49L89.69, 194.95L89.48, 192.11L89.48, 191.27L89.57, 189.33L89.86, 187.5L90.33, 185.77L91, 184.16L91.84, 182.68L92.83, 181.37L93.97, 180.24L95.26, 179.27L96.66, 178.49L98.11, 177.94L99.62, 177.61L101.18, 177.5L103.64, 177.72L105.82, 178.36L107.7, 179.43L109.29, 180.94L110.56, 182.84L111.46, 185.12L112, 187.76L112.18, 190.78L112.18, 192.67L94.06, 192.67L94.24, 194.56L94.68, 196.26L95.39, 197.76L96.37, 199.08L97.55, 200.14L98.88, 200.91L100.36, 201.36L102, 201.52L104.23, 201.27L106.11, 200.53L107.7, 199.36L109.04, 197.91L111.84, 200.08L109.95, 202.34L107.63, 203.96L104.9, 204.93L101.75, 205.25"/><path stroke="black" fill="none" stroke-width="1" d="M101.18, 181.25L102.54, 181.37L103.75, 181.73L104.82, 182.33L105.73, 183.17L106.48, 184.23L107.05, 185.49L107.42, 186.93L107.62, 188.58L107.62, 188.92L94.21, 188.92L94.52, 187.2L95.01, 185.69L95.68, 184.38L96.53, 183.27L97.53, 182.38L98.63, 181.75L99.85, 181.38L101.18, 181.25"/><path stroke="black" fill="none" stroke-width="1" d="M134, 204.75L133.64, 203.65L133.36, 201.94L131.69, 203.39L129.86, 204.42L127.87, 205.04L125.73, 205.25L123.85, 205.11L122.14, 204.69L120.6, 203.99L119.25, 203.02L118.14, 201.82L117.35, 200.47L116.88, 198.97L116.72, 197.33L116.92, 195.36L117.51, 193.62L118.5, 192.12L119.89, 190.84L121.64, 189.83L123.71, 189.11L126.11, 188.68L128.83, 188.53L133.28, 188.53L133.28, 186.42L133.19, 185.28L132.92, 184.26L132.47, 183.37L131.84, 182.59L131.05, 181.97L130.08, 181.53L128.94, 181.26L127.63, 181.17L125.37, 181.48L123.51, 182.42L122.79, 183.07L122.27, 183.79L121.96, 184.56L121.86, 185.41L117.25, 185.41L117.6, 183.44L118.67, 181.55L120.35, 179.87L122.53, 178.59L125.09, 177.77L127.89, 177.5L130.08, 177.64L132.02, 178.08L133.7, 178.8L135.14, 179.81L136.3, 181.08L137.13, 182.56L137.65, 184.26L137.86, 186.17L137.86, 198.48L137.92, 200.24L138.09, 201.8L138.39, 203.17L138.8, 204.36L138.8, 204.75L134, 204.75"/><path stroke="black" fill="none" stroke-width="1" d="M126.41, 201.27L128.52, 200.98L130.48, 200.16L132.15, 198.87L133.28, 197.25L133.28, 191.77L129.7, 191.77L127.73, 191.84L126.02, 192.07L124.57, 192.46L123.39, 193L122.46, 193.69L121.81, 194.53L121.41, 195.53L121.28, 196.69L121.37, 197.71L121.64, 198.61L122.09, 199.39L122.72, 200.06L124.36, 200.97L126.41, 201.27"/><path stroke="black" fill="none" stroke-width="1" d="M151.24, 171.5L151.24, 177.98L156.24, 177.98L156.24, 181.53L151.24, 181.53L151.24, 198.13L151.4, 199.54L151.89, 200.55L152.8, 201.14L154.18, 201.34L155.12, 201.27L156.36, 201.05L156.36, 204.75L154.58, 205.12L152.85, 205.25L151.41, 205.13L150.16, 204.79L149.1, 204.21L148.22, 203.39L147.54, 202.36L147.05, 201.15L146.76, 199.73L146.66, 198.13L146.66, 181.53L141.78, 181.53L141.78, 177.98L146.66, 177.98L146.66, 171.5L151.24, 171.5"/><path stroke="black" fill="none" stroke-width="1" d="M172.67, 205.25L170.08, 205.03L167.74, 204.36L165.65, 203.24L163.81, 201.67L162.32, 199.73L161.26, 197.49L160.62, 194.95L160.41, 192.11L160.41, 191.27L160.5, 189.33L160.79, 187.5L161.26, 185.77L161.92, 184.16L162.76, 182.68L163.75, 181.37L164.9, 180.24L166.19, 179.27L167.58, 178.49L169.03, 177.94L170.54, 177.61L172.11, 177.5L174.57, 177.72L176.75, 178.36L178.63, 179.43L180.22, 180.94L181.48, 182.84L182.39, 185.12L182.93, 187.76L183.11, 190.78L183.11, 192.67L164.99, 192.67L165.16, 194.56L165.61, 196.26L166.32, 197.76L167.3, 199.08L168.48, 200.14L169.81, 200.91L171.29, 201.36L172.92, 201.52L175.16, 201.27L177.03, 200.53L178.63, 199.36L179.97, 197.91L182.77, 200.08L180.87, 202.34L178.56, 203.96L175.83, 204.93L172.67, 205.25"/><path stroke="black" fill="none" stroke-width="1" d="M172.11, 181.25L173.47, 181.37L174.68, 181.73L175.74, 182.33L176.66, 183.17L177.41, 184.23L177.97, 185.49L178.35, 186.93L178.55, 188.58L178.55, 188.92L165.14, 188.92L165.45, 187.2L165.94, 185.69L166.61, 184.38L167.45, 183.27L168.45, 182.38L169.56, 181.75L170.78, 181.38L172.11, 181.25"/></svg>