<svg xmlns="http://www.w3.org/2000/svg" xmlns:xlink="http://www.w3.org/1999/xlink" width="500" zoomAndPan="magnify" viewBox="0 0 375 374.999991" height="500" preserveAspectRatio="xMidYMid meet" version="1.0"><defs><clipPath id="id1"><path d="M 31.296875 3.734375 L 344.046875 3.734375 L 344.046875 371.160156 L 31.296875 371.160156 Z M 31.296875 3.734375 " clip-rule="nonzero"/></clipPath></defs><g clip-path="url(#id1)"><path fill="#08f2e0" d="M 46.714844 355.957031 C 50.503906 278.03125 112.242188 215.824219 187.894531 215.824219 C 263.546875 215.824219 325.285156 278.03125 329.074219 355.992188 Z M 96.890625 109.78125 C 96.890625 59.613281 137.625 18.9375 187.894531 18.9375 C 238.132812 18.9375 278.867188 59.613281 278.867188 109.78125 C 278.867188 159.980469 238.132812 200.65625 187.894531 200.65625 C 137.65625 200.59375 96.957031 159.949219 96.890625 109.78125 Z M 230.65625 206.824219 C 284.324219 183.238281 308.691406 120.675781 285.042969 67.050781 C 261.425781 13.457031 198.773438 -10.878906 145.105469 12.707031 C 91.433594 36.320312 67.066406 98.886719 90.683594 152.480469 C 101.367188 176.746094 120.800781 196.125 145.105469 206.824219 C 79.480469 226.230469 31.296875 289.152344 31.296875 363.558594 L 31.296875 371.160156 L 344.425781 371.160156 L 344.425781 363.558594 C 344.425781 289.152344 296.214844 226.230469 230.65625 206.824219 " fill-opacity="1" fill-rule="nonzero"/></g></svg>